<svg id="Layer_1" data-name="Layer 1" xmlns="http://www.w3.org/2000/svg" viewBox="0 0 512 512"><title>gesture-11-filled</title><path d="M385.22,512a13,13,0,0,0,13-13V472.61a187.72,187.72,0,0,1,11.5-64.79l5.17-14.12a126,126,0,0,0,7.71-43.46v-64.4c0-13.21-9.65-24.49-22-25.66a24.26,24.26,0,0,0-19.2,6.58,25,25,0,0,0-7.6,18.22v15.45a8.31,8.31,0,0,1-7.59,8.39,8.13,8.13,0,0,1-8.67-8.11V261.46c0-13.21-9.65-24.49-22-25.66a24.39,24.39,0,0,0-26.8,24.27v16a8.31,8.31,0,0,1-7.59,8.39,8.13,8.13,0,0,1-8.67-8.11V229c0-13.21-9.65-24.49-22-25.66a24.19,24.19,0,0,0-19.25,6.63,25,25,0,0,0-7.55,18.17v15.44a8.31,8.31,0,0,1-7.59,8.39,8.13,8.13,0,0,1-8.67-8.11V115.17c0-13.21-9.65-24.49-22-25.66a24.39,24.39,0,0,0-26.8,24.27v202.9a8.31,8.31,0,0,1-7.59,8.39,8.13,8.13,0,0,1-8.67-8.11v-6.61a14.41,14.41,0,0,0-19.29-13.63c-8.46,3.15-14.62,8.1-18.42,14.81-16.8,29.68,12,90.24,24.48,111.08,19.93,27.9,29.48,44.39,29.48,72.57V499a13,13,0,0,0,13,13Z"/><path d="M105.65,130a16.25,16.25,0,0,0,16.25-16.25,81.27,81.27,0,1,1,162.54,0,16.25,16.25,0,0,0,32.51,0,113.78,113.78,0,0,0-227.56,0A16.25,16.25,0,0,0,105.65,130Z"/></svg>